<svg width="96" height="97" viewBox="0 0 96 97" fill="none" xmlns="http://www.w3.org/2000/svg">
<path d="M36.3594 36.5003C37.2998 33.827 39.156 31.5728 41.5992 30.1369C44.0424 28.701 46.915 28.1761 49.7081 28.6552C52.5012 29.1343 55.0346 30.5864 56.8597 32.7544C58.6847 34.9225 59.6836 37.6664 59.6794 40.5003C59.6794 48.5003 47.6794 52.5003 47.6794 52.5003M48 68.5H48.04M88 48.5C88 70.5914 70.0914 88.5 48 88.5C25.9086 88.5 8 70.5914 8 48.5C8 26.4086 25.9086 8.5 48 8.5C70.0914 8.5 88 26.4086 88 48.5Z" stroke="#E0E0E0" stroke-width="4" stroke-linecap="round" stroke-linejoin="round"/>
</svg>
