<svg width="96" height="97" viewBox="0 0 96 97" fill="none" xmlns="http://www.w3.org/2000/svg">
<path d="M48.88 8.5H47.12C44.9983 8.5 42.9634 9.34285 41.4632 10.8431C39.9629 12.3434 39.12 14.3783 39.12 16.5V17.22C39.1186 18.6229 38.7482 20.0008 38.0462 21.2153C37.3441 22.4299 36.335 23.4385 35.12 24.14L33.4 25.14C32.1839 25.8421 30.8043 26.2118 29.4 26.2118C27.9957 26.2118 26.6162 25.8421 25.4 25.14L24.8 24.82C22.9643 23.7611 20.7834 23.4738 18.736 24.0212C16.6887 24.5687 14.9422 25.9061 13.88 27.74L13 29.26C11.9411 31.0957 11.6538 33.2767 12.2012 35.324C12.7487 37.3713 14.0862 39.1178 15.92 40.18L16.52 40.58C17.7291 41.278 18.7345 42.2804 19.4362 43.4873C20.1379 44.6943 20.5116 46.0639 20.52 47.46V49.5C20.5256 50.9097 20.1586 52.2958 19.4562 53.518C18.7538 54.7403 17.7408 55.7552 16.52 56.46L15.92 56.82C14.0862 57.8822 12.7487 59.6287 12.2012 61.676C11.6538 63.7233 11.9411 65.9043 13 67.74L13.88 69.26C14.9422 71.0939 16.6887 72.4313 18.736 72.9788C20.7834 73.5262 22.9643 73.2389 24.8 72.18L25.4 71.86C26.6162 71.1579 27.9957 70.7882 29.4 70.7882C30.8043 70.7882 32.1839 71.1579 33.4 71.86L35.12 72.86C36.335 73.5615 37.3441 74.5701 38.0462 75.7847C38.7482 76.9992 39.1186 78.3771 39.12 79.78V80.5C39.12 82.6217 39.9629 84.6566 41.4632 86.1569C42.9634 87.6571 44.9983 88.5 47.12 88.5H48.88C51.0017 88.5 53.0366 87.6571 54.5369 86.1569C56.0372 84.6566 56.88 82.6217 56.88 80.5V79.78C56.8814 78.3771 57.2518 76.9992 57.9539 75.7847C58.6559 74.5701 59.6651 73.5615 60.88 72.86L62.6 71.86C63.8162 71.1579 65.1957 70.7882 66.6 70.7882C68.0043 70.7882 69.3839 71.1579 70.6 71.86L71.2 72.18C73.0357 73.2389 75.2167 73.5262 77.264 72.9788C79.3113 72.4313 81.0578 71.0939 82.12 69.26L83 67.7C84.059 65.8643 84.3462 63.6833 83.7988 61.636C83.2513 59.5887 81.9139 57.8422 80.08 56.78L79.48 56.46C78.2592 55.7552 77.2463 54.7403 76.5438 53.518C75.8414 52.2958 75.4744 50.9097 75.48 49.5V47.5C75.4744 46.0903 75.8414 44.7042 76.5438 43.482C77.2463 42.2597 78.2592 41.2448 79.48 40.54L80.08 40.18C81.9139 39.1178 83.2513 37.3713 83.7988 35.324C84.3462 33.2767 84.059 31.0957 83 29.26L82.12 27.74C81.0578 25.9061 79.3113 24.5687 77.264 24.0212C75.2167 23.4738 73.0357 23.7611 71.2 24.82L70.6 25.14C69.3839 25.8421 68.0043 26.2118 66.6 26.2118C65.1957 26.2118 63.8162 25.8421 62.6 25.14L60.88 24.14C59.6651 23.4385 58.6559 22.4299 57.9539 21.2153C57.2518 20.0008 56.8814 18.6229 56.88 17.22V16.5C56.88 14.3783 56.0372 12.3434 54.5369 10.8431C53.0366 9.34285 51.0017 8.5 48.88 8.5Z" stroke="#E0E0E0" stroke-width="4" stroke-linecap="round" stroke-linejoin="round"/>
<path d="M48 60.5C54.6274 60.5 60 55.1274 60 48.5C60 41.8726 54.6274 36.5 48 36.5C41.3726 36.5 36 41.8726 36 48.5C36 55.1274 41.3726 60.5 48 60.5Z" stroke="#E0E0E0" stroke-width="4" stroke-linecap="round" stroke-linejoin="round"/>
</svg>
