<svg width="102" height="102" viewBox="0 0 102 102" fill="none" xmlns="http://www.w3.org/2000/svg">
<path d="M26.2513 26.163C12.5829 39.8313 12.5829 61.9921 26.2513 75.6604C39.9196 89.3288 62.0804 89.3288 75.7487 75.6604C89.4171 61.9921 89.4171 39.8313 75.7487 26.163C62.0804 12.4946 39.9196 12.4946 26.2513 26.163Z" fill="#171717"/>
<path d="M26.2513 26.163C12.5829 39.8313 12.5829 61.9921 26.2513 75.6604C39.9196 89.3288 62.0804 89.3288 75.7487 75.6604C89.4171 61.9921 89.4171 39.8313 75.7487 26.163C62.0804 12.4946 39.9196 12.4946 26.2513 26.163Z" stroke="#636363" stroke-width="2"/>
<path d="M57.5997 57.5114V44.3121M57.5997 44.3121H44.4003M57.5997 44.3121L44.4003 57.5114" stroke="#E0E0E0" stroke-width="2.66" stroke-linecap="round" stroke-linejoin="round"/>
</svg>
