<svg width="48" height="48" viewBox="0 0 48 48" fill="none" xmlns="http://www.w3.org/2000/svg">
<path d="M22 4C20.9391 4 19.9217 4.42143 19.1716 5.17157C18.4214 5.92172 18 6.93913 18 8V18H8C6.93913 18 5.92172 18.4214 5.17157 19.1716C4.42143 19.9217 4 20.9391 4 22V26C4 28.2 5.8 30 8 30H18V40C18 42.2 19.8 44 22 44H26C27.0609 44 28.0783 43.5786 28.8284 42.8284C29.5786 42.0783 30 41.0609 30 40V30H40C41.0609 30 42.0783 29.5786 42.8284 28.8284C43.5786 28.0783 44 27.0609 44 26V22C44 20.9391 43.5786 19.9217 42.8284 19.1716C42.0783 18.4214 41.0609 18 40 18H30V8C30 6.93913 29.5786 5.92172 28.8284 5.17157C28.0783 4.42143 27.0609 4 26 4H22Z" stroke="#E0E0E0" stroke-width="4" stroke-linecap="round" stroke-linejoin="round"/>
</svg>
